<svg xmlns="http://www.w3.org/2000/svg" xmlns:xlink="http://www.w3.org/1999/xlink" width="58" height="58" viewBox="0 0 58 58"><defs><style>.a{fill:#ed1b2f;stroke:#707070;}.b{clip-path:url(#a);}.c{fill:url(#b);}</style><clipPath id="a"><rect class="a" width="58" height="58" transform="translate(921 1747)"/></clipPath><linearGradient id="b" x1="1" y1="0.078" x2="0.095" y2="1.401" gradientUnits="objectBoundingBox"><stop offset="0" stop-color="#ed1b2f"/><stop offset="1" stop-color="#4b14b0"/></linearGradient></defs><g class="b" transform="translate(-921 -1747)"><g transform="translate(919.118 1745.149)"><path class="c" d="M11.538,41.772H6.417A4.008,4.008,0,0,1,2.53,37.638V30.481a4.008,4.008,0,0,1,3.887-4.134H9.009V22.891c-.062-9.934,9.564-21.04,22.46-21.04s22.521,11.106,22.521,21.04v9.872H51.4V22.891c.062-8.515-8.638-18.449-19.93-18.449-11.23,0-19.991,9.934-19.991,18.449V41.772ZM6.355,28.938a1.434,1.434,0,0,0-1.3,1.6v7.1a1.412,1.412,0,0,0,1.3,1.543H8.947V28.938Z"/><path class="c" d="M55.347,41.772H52.755V39.181h2.591a1.412,1.412,0,0,0,1.3-1.543V30.481a1.472,1.472,0,0,0-1.3-1.6H52.755V26.285h2.591a4.008,4.008,0,0,1,3.887,4.134v7.219A4.091,4.091,0,0,1,55.347,41.772Z"/><path class="c" d="M41.957,51.336,40.415,49.3c3.826-2.9,5.862-8.577,5.862-12.649V32.826h2.591v3.887C48.868,41.4,46.462,47.943,41.957,51.336Z"/><path class="c" d="M50.164,34.06c-9.626,0-28.321-11.847-28.321-21.9h2.591c0,7.774,16.845,19.313,25.73,19.313Z"/><path class="c" d="M25.3,53.249a19.17,19.17,0,0,1-11.168-16.6V31.468c0-5.985,5.491-13.574,9.811-15.364l.987,2.406c-3.455,1.419-8.268,8.268-8.268,12.957v5.121a16.74,16.74,0,0,0,9.626,14.253Z"/><path class="c" d="M34.738,59.851H30.851a3.887,3.887,0,0,1,0-7.774h3.887a3.871,3.871,0,0,1,3.887,3.887A3.951,3.951,0,0,1,34.738,59.851Zm-3.887-5.183a1.3,1.3,0,1,0,0,2.591h3.887a1.3,1.3,0,0,0,0-2.591Z"/><path class="c" d="M37.515,57.26H35.972V54.668h1.543A13.97,13.97,0,0,0,51.46,40.723V36.651h2.591v4.072A16.537,16.537,0,0,1,37.515,57.26Z"/></g></g></svg>