<svg xmlns="http://www.w3.org/2000/svg" xmlns:xlink="http://www.w3.org/1999/xlink" width="58" height="58" viewBox="0 0 58 58"><defs><style>.a{stroke:#707070;}.a,.c{fill:url(#a);}.b{clip-path:url(#b);}</style><linearGradient id="a" x1="-0.291" y1="2.518" x2="6.192" y2="-1.119" gradientUnits="objectBoundingBox"><stop offset="0" stop-color="#ed1b2f"/><stop offset="1" stop-color="#4b14b0"/></linearGradient><clipPath id="b"><rect class="a" width="58" height="58" transform="translate(514 1747)"/></clipPath></defs><g class="b" transform="translate(-514 -1747)"><g transform="translate(510.901 1744.344)"><path class="c" d="M14.737,24.288H9.487v-2.53h4.87c.7.063,1.012.063,1.961-1.012,1.012-1.2,3.795-4.048,7.21-4.048H24.6v2.53H23.529c-1.581,0-3.605,1.2-5.25,3.162C16.824,23.972,15.749,24.288,14.737,24.288Z"/><path class="c" d="M33.649,43.136H21.758c-2.15,0-4.048-1.455-5.566-2.656a7.849,7.849,0,0,0-1.708-1.138H9.361v-2.53h5.186c1.012,0,1.961.759,3.162,1.644,1.2.949,2.72,2.087,3.985,2.087H33.586c.506-.379,1.834-3.858,2.15-14.231a2.158,2.158,0,0,0-.632-1.518,1.922,1.922,0,0,0-1.455-.632H23.276v-2.53H33.712A4.593,4.593,0,0,1,37,23.023a4.527,4.527,0,0,1,1.328,3.352C37.823,43.136,34.914,43.136,33.649,43.136Z"/><path class="c" d="M10.689,43.136H3.1v-2.53h5.06V21.695H3.1V19.228h7.59Z"/><rect class="c" width="2.53" height="3.795" transform="translate(4.364 22.96)"/><path class="c" d="M45.287,42.061,43.516,40.29a11.774,11.774,0,0,0,3.479-8.349,11.517,11.517,0,0,0-3.479-8.349l1.771-1.771a14.354,14.354,0,0,1,0,20.24Z"/><path class="c" d="M49.4,46.172,47.627,44.4a17.6,17.6,0,0,0,0-24.92L49.4,17.71A20.156,20.156,0,0,1,49.4,46.172Z"/><path class="c" d="M53.509,50.284l-1.771-1.771a23.363,23.363,0,0,0,0-33.143L53.509,13.6a25.959,25.959,0,0,1,0,36.685Z"/><path class="c" d="M35.167,59.518l-.569-.379c-3.415-2.34-8.159-6.641-10.12-17.014l2.467-.443c1.644,8.918,5.5,12.84,8.475,15.053A17.925,17.925,0,0,0,40.986,53,16.387,16.387,0,0,0,37.7,45.1a15.547,15.547,0,0,0-3.226.7l-1.012.38-.506-1.012a22.086,22.086,0,0,1-1.138-2.846l2.4-.822c.19.569.379,1.139.569,1.581A26.184,26.184,0,0,1,37.95,42.5l.822-.126.443.443a19.065,19.065,0,0,1,4.427,10.373l.063.569-.443.443a19.657,19.657,0,0,1-7.463,5Z"/><path class="c" d="M33.712,23.339l-2.4-.7a25.638,25.638,0,0,1,1.644-4.427l.506-1.012,1.075.379a15.547,15.547,0,0,0,3.226.7,16.737,16.737,0,0,0,3.289-7.906A20.3,20.3,0,0,0,35.42,6.641c-3.162,2.34-7.274,6.578-8.728,16.508l-2.467-.379c1.708-11.448,6.7-16.129,10.373-18.6l.569-.379.632.253a21.226,21.226,0,0,1,7.463,5l.379.443-.063.632a19.065,19.065,0,0,1-4.427,10.373l-.443.443-.822-.127a27.791,27.791,0,0,1-3.1-.569A25.105,25.105,0,0,0,33.712,23.339Z"/></g></g></svg>