<svg xmlns="http://www.w3.org/2000/svg" xmlns:xlink="http://www.w3.org/1999/xlink" width="58" height="58" viewBox="0 0 58 58"><defs><style>.a{fill:#fff;stroke:#707070;}.b{clip-path:url(#a);}.c{fill:url(#b);}.d{fill:url(#c);}.e{fill:url(#d);}.f{fill:url(#e);}.g{fill:url(#f);}.h{fill:url(#g);}.i{fill:url(#h);}.j{fill:url(#i);}.k{fill:url(#j);}</style><clipPath id="a"><rect class="a" width="58" height="58" transform="translate(1333 1747)"/></clipPath><linearGradient id="b" x1="0.024" y1="1.245" x2="0.581" y2="0.412" gradientUnits="objectBoundingBox"><stop offset="0" stop-color="#4b14b0"/><stop offset="1" stop-color="#ff347b"/></linearGradient><linearGradient id="c" x1="0.226" y1="1.957" x2="0.713" y2="-0.957" xlink:href="#b"/><linearGradient id="d" x1="-2.032" y1="6.861" x2="2.637" y2="-4.872" xlink:href="#b"/><linearGradient id="e" x1="-0.475" y1="1.457" x2="0.255" y2="0.64" xlink:href="#b"/><linearGradient id="f" x1="-0.19" y1="2.298" x2="1.11" y2="-0.616" xlink:href="#b"/><linearGradient id="g" x1="-1.365" y1="2.195" x2="0.969" y2="0.077" xlink:href="#b"/><linearGradient id="h" x1="-14.024" y1="15.021" x2="-2.291" y2="3.288" xlink:href="#b"/><linearGradient id="i" x1="-15.02" y1="16.025" x2="-3.286" y2="4.292" xlink:href="#b"/><linearGradient id="j" x1="-16.015" y1="17.03" x2="-4.282" y2="5.297" xlink:href="#b"/></defs><g class="b" transform="translate(-1333 -1747)"><g transform="translate(1331.149 1745.149)"><path class="c" d="M56.211,50.164H5.491V19.93a3.647,3.647,0,0,1,3.64-3.64h10.86V18.7H9.07A1.238,1.238,0,0,0,7.836,19.93V47.757H53.743V30.851h2.406V50.164Z"/><path class="d" d="M53.8,57.445H7.9A6.057,6.057,0,0,1,1.851,51.4v-3.64h58V51.4A6.057,6.057,0,0,1,53.8,57.445ZM4.257,50.164V51.4a3.647,3.647,0,0,0,3.64,3.64H53.8a3.647,3.647,0,0,0,3.64-3.64V50.164Z"/><rect class="e" width="6.047" height="2.406" transform="translate(28.445 51.398)"/><path class="f" d="M35.664,38.811a2.476,2.476,0,0,1-.926-.185A2.344,2.344,0,0,1,33.257,36.4V29.617h-3.64V27.211h6.047V36.4l9.194-9.194H55.038A2.409,2.409,0,0,0,57.445,24.8V9.07a2.409,2.409,0,0,0-2.406-2.406h-29A2.409,2.409,0,0,0,23.632,9.07V21.164H21.226V9.07a4.819,4.819,0,0,1,4.813-4.813h29A4.819,4.819,0,0,1,59.851,9.07V24.8a4.819,4.819,0,0,1-4.813,4.813H45.845l-8.453,8.515A2.424,2.424,0,0,1,35.664,38.811Z"/><path class="g" d="M33.257,46.585H30.851V43.438c0-2.16-5.738-4.072-8.453-4.072s-8.453,1.913-8.453,4.072v3.147H11.538V43.438c0-4.566,8.268-6.54,10.86-6.54s10.86,1.974,10.86,6.54Z"/><path class="h" d="M22.4,35.664a6.057,6.057,0,0,1-6.047-6.047V28.383a6.047,6.047,0,0,1,12.094,0v1.234A6.017,6.017,0,0,1,22.4,35.664Zm0-10.86a3.635,3.635,0,0,0-3.64,3.579v1.234a3.641,3.641,0,0,0,7.281,0V28.383A3.635,3.635,0,0,0,22.4,24.8Z"/><rect class="i" width="2.406" height="2.406" transform="translate(34.491 16.351)"/><rect class="j" width="2.406" height="2.406" transform="translate(39.304 16.351)"/><rect class="k" width="2.406" height="2.406" transform="translate(44.117 16.351)"/></g></g></svg>