<svg xmlns="http://www.w3.org/2000/svg" width="30.312" height="30.201" viewBox="0 0 30.312 30.201"><defs><style>.a{fill:#b4b2b2;}</style></defs><g transform="translate(-7 -7.786)"><path class="a" d="M7,15.468a7.8,7.8,0,0,1,.377-.916,22.282,22.282,0,0,1,3.181-4.259A27.441,27.441,0,0,1,12.706,8.28a1.8,1.8,0,0,1,2.78.416,37.843,37.843,0,0,1,3.662,5.979c.139.288.238.6.349.906a1.762,1.762,0,0,1-.475,2.007c-.583.555-1.171,1.065-1.778,1.573a.431.431,0,0,0-.14.58,13.828,13.828,0,0,0,8.232,8.246.471.471,0,0,0,.635-.167q.72-.873,1.5-1.7a1.725,1.725,0,0,1,2.089-.489,28.647,28.647,0,0,1,2.839,1.387c1.232.72,2.412,1.526,3.608,2.3a3.229,3.229,0,0,1,.648.513,1.7,1.7,0,0,1,.216,2.481,15.833,15.833,0,0,1-1.9,2.059c-1.229,1.049-2.548,1.993-3.818,3a3.111,3.111,0,0,1-2.781.5,20.658,20.658,0,0,1-5.949-2.3,34.374,34.374,0,0,1-12.9-12.908A18.456,18.456,0,0,1,7.1,15.852c-.016-.119-.029-.238-.043-.36ZM13.843,9.89c-.115.1-.209.166-.295.246a28.6,28.6,0,0,0-4.135,4.832,1.419,1.419,0,0,0-.233,1.17,19.528,19.528,0,0,0,2.953,6.947A32.676,32.676,0,0,0,22.874,33.49a17.593,17.593,0,0,0,6.446,2.466.776.776,0,0,0,.527-.115c1.195-.9,2.394-1.805,3.553-2.754.655-.536,1.238-1.159,1.854-1.742-.1-.118-.11-.155-.135-.177a2.277,2.277,0,0,0-.194-.158A36.772,36.772,0,0,0,29.3,27.663a.482.482,0,0,0-.69.154c-.576.674-1.176,1.33-1.765,1.993a1.188,1.188,0,0,1-1.339.334,15.046,15.046,0,0,1-6.056-3.426,15.244,15.244,0,0,1-4.516-7.192,1.1,1.1,0,0,1,.3-1.217c.7-.635,1.4-1.272,2.113-1.9a.393.393,0,0,0,.115-.549,36.087,36.087,0,0,0-3.375-5.69C14.015,10.08,13.931,10,13.843,9.89Z" transform="translate(0 0)"/><path class="a" d="M219.237,21.783a13.11,13.11,0,0,1,12.241,9.457,12.938,12.938,0,0,1,.514,3.477,1.019,1.019,0,1,1-2.019.026,11.069,11.069,0,0,0-8.442-10.624,20.373,20.373,0,0,0-2.671-.33,1.048,1.048,0,0,1-.98-.933,1,1,0,0,1,.82-1.067A2.979,2.979,0,0,1,219.237,21.783Z" transform="translate(-195.687 -12.98)"/><path class="a" d="M219.073,91.627a8.083,8.083,0,0,1,7.813,7.059c.033.3.062.6.067.9a1.011,1.011,0,1,1-2.013.037,6.061,6.061,0,0,0-5.974-5.971,1.019,1.019,0,0,1-.983-.6A.943.943,0,0,1,218.118,92,1.033,1.033,0,0,1,219.073,91.627Z" transform="translate(-195.692 -77.796)"/></g></svg>