<svg xmlns="http://www.w3.org/2000/svg" width="29.455" height="32.302" viewBox="0 0 29.455 32.302">
  <g id="Group_146" data-name="Group 146" transform="translate(-286.111 -166.914)">
    <g id="Send" transform="translate(279.338 137.176)">
      <path id="Path_5875" data-name="Path 5875" d="M32.179,52.923a.9.9,0,0,1-.283-.046l-22.824-7.8a.868.868,0,0,1-.122-1.59L34.955,29.908a.868.868,0,0,1,1.259.9L33.036,52.184a.868.868,0,0,1-.857.738ZM11.544,44.087,31.474,50.9l2.775-18.669Z" transform="translate(0 -0.067)" fill="#b4b2b2"/>
      <path id="Path_5876" data-name="Path 5876" d="M152.367,56.324a.859.859,0,0,1-.269-.043.868.868,0,0,1-.6-.824v-7.8a.872.872,0,0,1,.233-.591l15.892-17.048A.869.869,0,0,1,168.9,31.2L153.233,48v4.817l2.893-3.938a.867.867,0,1,1,1.4,1.028l-4.455,6.068a.873.873,0,0,1-.7.354Z" transform="translate(-132.902 0)" fill="#b4b2b2"/>
    </g>
    <path id="Path_5880" data-name="Path 5880" d="M2779.9,186.15l-1.934,1.962-1.934,1.962" transform="translate(-2489 -1)" fill="none" stroke="#b4b2b2" stroke-linecap="round" stroke-width="1.3"/>
    <path id="Path_5881" data-name="Path 5881" d="M2779.9,186.15l-7.076,7.638" transform="translate(-2484 1)" fill="none" stroke="#b4b2b2" stroke-linecap="round" stroke-width="1.3"/>
    <path id="Path_5882" data-name="Path 5882" d="M2779.9,186.15l-5.319,7.157" transform="translate(-2472 5)" fill="none" stroke="#b4b2b2" stroke-linecap="round" stroke-width="1.3"/>
  </g>
</svg>
