<svg xmlns="http://www.w3.org/2000/svg" width="32.51" height="32.501" viewBox="0 0 32.51 32.501"><defs><style>.a{fill:#b4b2b2;}</style></defs><g transform="translate(-4.073 -1.079)"><g transform="translate(8.552 5.543)"><path class="a" d="M68.389,79.851c-.331-.275-.646-.283-.824,0s-.024.485.17.679A11.031,11.031,0,0,0,78.36,83.794a11.37,11.37,0,1,0-13.688-9.858A10.959,10.959,0,0,0,66.28,78.63c.17.275.4.388.679.226s.267-.436.121-.7c-.032-.057-.073-.113-.105-.17a10.441,10.441,0,0,1,2.852-13.737c.081-.057.17-.1.323-.186-.129.574-.25,1.067-.347,1.568a2.472,2.472,0,0,0,.4,2.077c.566.735,1.131,1.471,1.713,2.2.307.388.63.364.9-.065.194-.307.372-.622.549-.937.881-1.535.743-1.317,2.238-1.438a3.048,3.048,0,0,0,2.157-1.042c.945-1.05,1.98-2.012,2.982-3.03a10.813,10.813,0,0,1,3.329,2.683.494.494,0,0,1,.065.638c-.339.646-.646,1.3-.962,1.955a2.435,2.435,0,0,0,.4,2.941c.808.921,1.632,1.826,2.456,2.739a.563.563,0,0,1,.162.574,10.447,10.447,0,0,1-15.522,6.731A19.667,19.667,0,0,1,68.389,79.851ZM79.524,63.294c-.962.962-1.915,1.931-2.885,2.877a1.255,1.255,0,0,1-.59.283c-.461.081-.929.121-1.4.162a2.021,2.021,0,0,0-1.656,1.067c-.218.38-.444.76-.719,1.22-.517-.711-1.034-1.349-1.471-2.028a1.389,1.389,0,0,1-.129-.889c.137-.784.331-1.551.517-2.319a.617.617,0,0,1,.25-.372,10.25,10.25,0,0,1,8.218-.364c.024.008.04.032.1.081A3.615,3.615,0,0,1,79.524,63.294Zm4.549,7.466a1.243,1.243,0,0,1-.234-1.293c.3-.727.663-1.43,1.042-2.23a10.26,10.26,0,0,1,1.5,5.98l-.105.048C85.544,72.433,84.792,71.609,84.073,70.76Z" transform="translate(-64.196 -60.896)"/><path class="a" d="M82.4,64.213a11.824,11.824,0,0,0-13.187-7.7,11.783,11.783,0,0,0-9.64,12.9,11.451,11.451,0,0,0,1.665,4.864.863.863,0,0,0,1.22.364.848.848,0,0,0,.275-1.252l-.073-.121c-.016-.024-.024-.04-.04-.065a10.119,10.119,0,0,1,2.2-12.783c-.04.186-.081.372-.121.549a2.882,2.882,0,0,0,.477,2.4c.566.735,1.139,1.479,1.713,2.206a.869.869,0,0,0,1.551-.105c.2-.323.4-.655.558-.953l.016-.024a5.245,5.245,0,0,1,.679-1.05c.113-.089.275-.105.719-.129.145-.008.307-.016.5-.032A3.41,3.41,0,0,0,73.33,62.1c.646-.719,1.366-1.422,2.052-2.1.234-.226.469-.461.7-.695a10.469,10.469,0,0,1,2.949,2.448.307.307,0,0,1,.057.081.447.447,0,0,1-.048.113c-.267.509-.517,1.034-.768,1.543-.065.137-.137.283-.2.42a2.812,2.812,0,0,0,.469,3.386c.808.913,1.632,1.834,2.456,2.739l.024.024a.155.155,0,0,1,.048.162l-.008.032A9.959,9.959,0,0,1,75.245,77.3a9.817,9.817,0,0,1-9.1-.574,12.817,12.817,0,0,1-1.632-1.261c-.194-.17-.388-.339-.59-.5h0a1.07,1.07,0,0,0-.865-.291.826.826,0,0,0-.558.388.88.88,0,0,0,.226,1.172A11.521,11.521,0,0,0,71.035,79.9a12.535,12.535,0,0,0,2.691-.3A11.612,11.612,0,0,0,81.5,73.942,11.827,11.827,0,0,0,82.4,64.213Zm-7.014-5.519c-.024.032-.048.057-.073.089a2.352,2.352,0,0,1-.194.218h0l-.525.533c-.768.776-1.568,1.576-2.359,2.351l-.016.008a1.545,1.545,0,0,1-.792.38c-.477.081-.953.121-1.422.162h-.008a1.608,1.608,0,0,0-1.341.865c-.154.259-.307.525-.477.808l-.558.945-.364-.493c-.154-.2-.3-.4-.444-.6-.372-.493-.719-.953-1.034-1.454a1.738,1.738,0,0,1-.186-1.172c.121-.727.3-1.446.477-2.141l.048-.2a.989.989,0,0,1,.469-.638,10.688,10.688,0,0,1,8.525-.38.456.456,0,0,1,.186.121c.008.008.024.016.032.032l.307.259ZM82.1,68.665l-.016.242-.6.267-.194-.218-.614-.687c-.533-.59-1.083-1.2-1.608-1.826a1.647,1.647,0,0,1-.307-1.7c.21-.525.461-1.026.719-1.551q.17-.339.339-.7l.331-.687.388.663A10.577,10.577,0,0,1,82.1,68.665Z" transform="translate(-59.505 -56.32)"/></g><g transform="translate(4.073 1.079)"><path class="a" d="M37.931,12.816c-.162-1.091-.315-2.182-.469-3.281-.081-.574-.259-.8-.6-.735-.323.057-.42.323-.339.865s.154,1.083.242,1.721c-.154-.145-.226-.21-.3-.283A15.837,15.837,0,0,0,9.755,26.642c.21.663.493,1.309.76,1.955a.466.466,0,1,0,.84-.388c-.048-.1-.089-.194-.129-.3a14.667,14.667,0,0,1,.291-12.646A14.9,14.9,0,0,1,34.109,10.19c.695.558,1.325,1.2,1.98,1.81l-.073.105c-.509-.162-1.018-.331-1.519-.493-.388-.121-.663-.032-.727.259-.081.372.137.533.461.638.97.315,1.939.646,2.909.97C37.746,13.673,38.02,13.446,37.931,12.816Z" transform="translate(-8.614 -5.631)"/><path class="a" d="M6.4,24.781A.824.824,0,0,1,5.61,24.2c-.048-.121-.1-.234-.145-.356-.218-.525-.444-1.075-.622-1.632A16.224,16.224,0,0,1,10.749,4.2,16.226,16.226,0,0,1,31.661,5.7c-.024-.178-.048-.356-.081-.533-.145-.97.283-1.252.663-1.317a.776.776,0,0,1,.622.129,1.388,1.388,0,0,1,.444.953c.154,1.091.307,2.19.469,3.273h0a1.046,1.046,0,0,1-.275,1.01,1.042,1.042,0,0,1-1.042.089c-.323-.105-.646-.218-.97-.323-.638-.21-1.293-.436-1.939-.646a.9.9,0,0,1-.727-1.107.8.8,0,0,1,.372-.517,1.065,1.065,0,0,1,.873-.04c.032.008.073.024.105.032-.283-.267-.574-.517-.865-.76A14.491,14.491,0,0,0,7.347,10.89a14.253,14.253,0,0,0-.275,12.323l.024.065c.032.073.057.145.089.21l.008.016a.848.848,0,0,1-.372,1.188A1.091,1.091,0,0,1,6.4,24.781ZM32.372,4.652Z" transform="translate(-4.073 -1.079)"/></g><g transform="translate(6.85 9.89)"><path class="a" d="M71.244,116.517c-.145-.42-.331-.824-.509-1.228-.121-.291-.339-.444-.646-.315a.441.441,0,0,0-.21.671c.057.121.113.242.162.372a14.548,14.548,0,0,1,.1,11.668,14.887,14.887,0,0,1-20.969,7.345,13.032,13.032,0,0,1-3.935-3.273c.493.162.994.307,1.487.493.315.113.59.121.743-.226.129-.291-.048-.525-.461-.663l-2.909-.97c-.606-.2-.873.032-.784.671.154,1.091.315,2.182.469,3.281.073.549.242.768.566.727.339-.04.444-.315.364-.881-.081-.541-.154-1.083-.242-1.729.17.162.259.242.339.323a15.832,15.832,0,0,0,26.439-16.266Z" transform="translate(-42.902 -114.54)"/><path class="a" d="M51.963,133.813a16.287,16.287,0,0,1-11.377-4.622c.024.178.048.347.073.525a1.416,1.416,0,0,1-.162,1.042.765.765,0,0,1-.558.3c-.388.04-.881-.105-1.01-1.075-.154-1.091-.307-2.19-.461-3.273a1.055,1.055,0,0,1,.275-1.018,1.028,1.028,0,0,1,1.034-.1l2.909.97a1.086,1.086,0,0,1,.711.566.785.785,0,0,1-.008.646.884.884,0,0,1-1.252.444h0a12.452,12.452,0,0,0,2.788,2.044,14.48,14.48,0,0,0,20.4-7.143,14.228,14.228,0,0,0-.1-11.353l-.024-.048c-.048-.105-.089-.21-.137-.307a.914.914,0,0,1-.057-.743.833.833,0,0,1,.477-.469.861.861,0,0,1,.663-.024.965.965,0,0,1,.517.549l.1.218c.145.331.3.679.42,1.034a16.208,16.208,0,0,1-15.223,21.833Z" transform="translate(-38.448 -110.123)"/></g><g transform="translate(16.603 14.599)"><path class="a" d="M165.349,174.207c.073-.38-.057-.655-.347-.695-.364-.048-.5.186-.566.493-.1.485-.186.978-.291,1.463a2.547,2.547,0,0,0,.372,2c.315.485.59,1,.921,1.471a5.062,5.062,0,0,1,1,3.41,1.225,1.225,0,0,0,2.125.913c1.357-1.446,2.707-2.885,4.04-4.355a1.914,1.914,0,0,0-.234-2.86q-1.5-1.224-3.022-2.424a2.5,2.5,0,0,0-1.64-.525c-.218.032-.541.065-.865.121a.428.428,0,0,0-.4.509c.04.307.25.42.549.4a1.141,1.141,0,0,0,.162-.032,2.053,2.053,0,0,1,1.939.5c.84.719,1.721,1.39,2.578,2.085a1.047,1.047,0,0,1,.113,1.753q-1.854,2-3.709,3.992a1.2,1.2,0,0,1-.226.226c-.218.129-.4.081-.452-.186a2.273,2.273,0,0,1-.016-.525,5.2,5.2,0,0,0-.857-3.022c-.428-.655-.824-1.325-1.236-1.988a1.6,1.6,0,0,1-.242-1.2C165.155,175.241,165.252,174.724,165.349,174.207Z" transform="translate(-163.68 -172.72)"/><path class="a" d="M163.151,179.761a1.651,1.651,0,0,1-.638-.137,1.556,1.556,0,0,1-1-1.616,4.689,4.689,0,0,0-.929-3.143c-.21-.3-.4-.606-.574-.905-.113-.194-.234-.388-.356-.574a2.942,2.942,0,0,1-.428-2.319c.057-.275.113-.566.17-.848l.121-.606a.865.865,0,0,1,1.018-.808.809.809,0,0,1,.549.323,1.088,1.088,0,0,1,.137.848h0c-.024.145-.057.283-.081.428-.073.372-.145.751-.226,1.123a1.2,1.2,0,0,0,.186.9c.154.242.3.485.444.719.251.42.517.848.784,1.261a5.6,5.6,0,0,1,.921,3.256v.024a1.25,1.25,0,0,0-.008.178h0c1.236-1.325,2.481-2.667,3.709-3.992a.665.665,0,0,0-.073-1.164c-.3-.242-.606-.485-.905-.727-.558-.436-1.131-.9-1.673-1.366a1.638,1.638,0,0,0-1.576-.412,2.069,2.069,0,0,1-.218.04h-.016a.859.859,0,0,1-.978-.76.837.837,0,0,1,.735-.962c.242-.04.485-.073.679-.1l.2-.024h.057a2.861,2.861,0,0,1,1.891.614l.186.145c.937.743,1.907,1.511,2.844,2.279a2.333,2.333,0,0,1,.275,3.45c-1.309,1.446-2.667,2.893-3.976,4.291l-.065.073A1.738,1.738,0,0,1,163.151,179.761ZM160.428,169.6Z" transform="translate(-159.147 -168.4)"/></g></g></svg>