<svg xmlns="http://www.w3.org/2000/svg" width="27.743" height="26.586" viewBox="0 0 27.743 26.586"><defs><style>.a{fill:#b4b2b2;}</style></defs><g transform="translate(-8.485 -29.738)"><path class="a" d="M32.179,52.923a.9.9,0,0,1-.283-.046l-22.824-7.8a.868.868,0,0,1-.122-1.59L34.955,29.908a.868.868,0,0,1,1.259.9L33.036,52.184a.868.868,0,0,1-.857.738ZM11.544,44.087,31.474,50.9l2.775-18.669Z" transform="translate(0 -0.067)"/><path class="a" d="M152.367,56.324a.859.859,0,0,1-.269-.043.868.868,0,0,1-.6-.824v-7.8a.872.872,0,0,1,.233-.591l15.892-17.048A.869.869,0,0,1,168.9,31.2L153.233,48v4.817l2.893-3.938a.867.867,0,1,1,1.4,1.028l-4.455,6.068a.873.873,0,0,1-.7.354Z" transform="translate(-132.902 0)"/></g></svg>