<svg xmlns="http://www.w3.org/2000/svg" width="32.63" height="22.546" viewBox="0 0 32.63 22.546"><defs><style>.a{fill:#0f2a51;}</style></defs><g transform="translate(0.003 -67.193)"><path class="a" d="M32.3,73.624a22.336,22.336,0,0,0-16-6.43A22.77,22.77,0,0,0,.35,73.859a1.136,1.136,0,0,0,0,1.646,1.2,1.2,0,0,0,.825.353A1.193,1.193,0,0,0,2,75.506c7.841-7.841,20.937-7.919,28.66-.235a1.137,1.137,0,0,0,1.647,0A1.216,1.216,0,0,0,32.3,73.624Z"/><path class="a" d="M82.791,190h0a15.377,15.377,0,0,0-10.86,4.509,1.164,1.164,0,1,0,1.646,1.646,12.91,12.91,0,0,1,9.174-3.842,12,12,0,0,1,8.625,3.607,1.164,1.164,0,0,0,1.646-1.646A14.146,14.146,0,0,0,82.791,190Z" transform="translate(-66.208 -113.591)"/><path class="a" d="M140.89,312.139a1.136,1.136,0,0,0,0,1.646,1.194,1.194,0,0,0,.825.353,1.126,1.126,0,0,0,.825-.353,5.405,5.405,0,0,1,7.528-.236,1.164,1.164,0,1,0,1.647-1.646A7.71,7.71,0,0,0,140.89,312.139Z" transform="translate(-129.994 -224.398)"/></g></svg>